<?xml version="1.0" encoding="UTF-8"?>
<svg id="_레이어_2" data-name="레이어 2" xmlns="http://www.w3.org/2000/svg" viewBox="0 0 788.18 882.69">
  <defs>
    <style>
      .cls-1 {
        fill: #4b78ff;
      }
    </style>
  </defs>
  <g id="_레이어_1-2" data-name="레이어 1">
    <path class="cls-1" d="M787.08,401.11c-7.49,8.15-21.96,10.48-32.29,19.3-6.72,5.74-6.88,14.25-1.06,20.34l12.21,12.78c2.29,2.4,4.86,6.57,3.71,9.88-1.19,3.46-5.62,4.9-9.06,5.43-9.85,1.52-19.71-.45-28.92-4.18l-25.33-10.26c-5.26-2.13-10.24-1.45-15.35.73l-16.08,6.85c-23.82,8.37-50.14,9.14-74.11.75-19.7-7.38-35.28-19.7-50.56-34.91-16.53,30.48-36.85,53.94-62.62,75.87-17.6,14.98-36.49,28.01-57.58,39.09,16.23,12.98,28.76,25.84,27.99,47.04-.28,7.7-3.25,14.68-8.39,20.44l-14.9,13.73-5.62,5.6c-5.39,5.37-6.3,12.94-3.12,19.94,6.2,13.65,16.06,20.44,29.46,26.76,9.44,4.45,19.66,7.76,30.22,6.75l29.98-2.89c8.83-.85,21.38-1.06,23.5,5.65.64,2.03.04,4.95-1.74,6.37l-6.87,5.47c-11.91,7.53-27.4,16.71-18.39,29.75,2.22,3.21,5.23,5.92,8.21,8.58l13.01,11.58,2.53,4.22c.71,1.18.62,3.75-.05,4.84-2.01,3.32-7.96,2.97-12.1,1.06l-15.6-7.19c-4.43-2.04-8.98-3.67-13.82-4.3-7.55-.98-13.88,3.8-14.88,11.36l-2.12,16.11c-.38,2.85-1.19,5.77-2.31,8.36-1.19,2.74-4.26,4.15-7.21,2.97-8.23-3.29-14.68-13.04-18.29-20.85l-4.23-13.47c-3.46-11.01-5.75-26.09-15.36-31.22l-16.46-8.77c-14.34-8.77-26.69-20.29-36.16-34.09-5.1-7.44-7.66-15.9-9.25-24.66-1.88-10.35-5.12-19.81-11.28-28.36-8.08-11.22-20.08-18.28-33.76-20.62l-22.73-2.35c-7.92-.82-15.18-1.82-22.7-4.79l-64.66,18.6c-24.15,7.73-47.54,16.32-70.35,27.25-54.61,26.18-106.54,67.64-80.86,133.93l10.34,21.9c12.69,23.17,33.02,41.75,57.94,50.99,35.67,13.23,74.1,3.73,98.03-26.26,10.75-13.47,17.89-29.26,21.29-46.21,2.95-14.68.78-29.07-6.65-41.77l-8.11-13.87c-1.91-3.26-2.45-8.46-.63-10.87,1.58-2.1,8.52,3.97,11.97,7.86,8.15,9.18,21.3,27.43,23.44,38.23,11.62,58.65-34.24,113.04-91.4,124.83-19.24,3.97-38.19,2.72-56.69-3.29-26.71-8.67-50.96-23.21-71.65-41.84-7.82-7.04-15.28-14.66-21.56-23.36l-5.35-7.42c-7.9-12.23-13.72-25.31-17.69-39.4-13.45-47.82,1.59-94.96,28.82-135.16,11.94-17.63,25.19-33.79,40.89-48.01l15.32-13.88,10.94-8.9,9.44-7.19,5.52-4.14,69.87-49.15,33.65-22.65,26.24-17.69-14.23-8.97c-8.11-5.02-15.47-10.77-20.82-18.81-8.71-13.08-15.82-27.22-18.43-42.73l-3.03-18.02c-.74-4.42-3.07-7.79-6.46-10.71-7.83-6.75-16.37-12.11-24.75-17.75-4.41-2.98-8.16-7.23-11.61-11.56-3.17-3.99-5.33-8.33-6.72-13-.51-1.7-.46-5.09.63-6.59,2.01-2.77,5.9-3.2,9.13-2.59l19.6,3.7c6.71,1.26,13.02-2.17,15.07-8.77,1.36-4.39,1.55-9.3,1.04-13.95l-1.88-17.24c-.64-5.88.44-12.58,4.79-13.12,2.3-.29,4.34.95,5.78,2.82,6.92,8.97,7.37,19.47,14.06,28.73,9.07,12.55,22.45,2.03,32.95-6.68,4.65-3.85,10.43-8.23,14.54-5.85,5.42,3.14,3.5,12.49.67,18.89l-12.37,27.96c-3.53,7.99-5.83,15.96-5.93,24.88-.13,11.36,1.65,22.62,5.98,33.08,2.65,6.41,7.14,11.72,12.41,15.9,9.9,7.85,20.43,1.29,30.28-4.69,9.08-5.51,18.07-10.28,28.75-9.05.65-.58,1.95-1.79,2.45-2.88l22.94-49.71,13.27-29.04,12.09-19.35c15.31-23.14,32.23-44.64,51.56-64.44-15.01-31.15-22.06-62.04-9.37-95.41,4.76-12.52,10.66-24.4,19.77-34.19l11.48-12.34c3.68-3.96,6.03-8.33,5.86-13.91l-.68-22.26c-.85-8.6-.59-16.99,1.88-25.01C448.33,9.37,452.97-.09,458.12,0c5.18.09,8.49,7.73,11.25,13.09l5.98,11.58c3.5,6.78,11.81,7.93,18.45,3.99,11.11-6.59,17.3-16.85,27.15-22.88,2.77-1.7,7.36-1.37,8.43,2.1.83,2.69,0,6.67-1.47,9.2l-8.23,14.31c-1.88,3.28-3.61,6.83-4.53,10.53-1.6,6.36,1.29,12.06,7.05,15.03,12.07,6.23,24.95,5.56,30.48,10.82,3.18,3.02,1.57,8.45-2.14,10.56-5.38,3.05-11.16,5.13-17.28,6.56l-20.95,4.89c-9.21,2.15-17.54,5.18-25.25,10.95-9.3,6.95-17.2,15.61-23.13,25.73-8.35,14.25-3.32,35.52,2.25,51.05l3.6-2.07c32.76-21.6,69.37-35.76,108.25-41.2l22.04-2.25,19.64-.53c15.87-13.89,39.32-16.02,58.62-6.68,7.53,3.64,13.61,9.09,17.62,16.2,17.36,4.28,34.43,13.23,44.53,27.93,11.08,16.13,10.17,36.51,3.26,54.6-5.05,13.22-12.24,25.4-21.55,35.97-13.26,15.07-33.79,29.36-53.45,32.64l-23.7,3.96c-8.87,1.48-17.4,3.31-25.26,7.66-4.11,2.28-7.52,5.01-11.2,8-6.58,6.33-11.82,13.59-16.21,21.32-6.3,11.09-11.07,22.87-15.68,35.48l28.61,26.82c11.86,9.8,29.2,21.41,44.43,19.88,15.28-1.53,33.68-10.1,44.62-21.11,3.68-3.71,6.47-7.92,9.45-12.35l15.63-23.21c2.58-3.83,5.81-7,9.51-9.54,1.84-1.26,5.37-1.07,7.19.03,1.4.84,3.2,3.45,3.05,5.53l-.95,14.01c-.36,5.27-.93,10.44-.18,15.52,1.02,7,6.15,11.49,13.34,11.72,5.38.17,10.68-.94,15.99-2.14,7.06-1.6,18.09-3.05,20.36,1.52.75,1.51.48,4.61-.68,5.87Z"/>
  </g>
</svg>